<svg width="78" height="80" viewBox="0 0 78 80" fill="none" xmlns="http://www.w3.org/2000/svg">
<rect width="78" height="80" fill="#F1D92C"/>
<rect x="34.9863" y="45.8518" width="5.36575" height="14.0335" rx="2.68287" transform="rotate(-15 34.9863 45.8518)" fill="#B7E7DF"/>
<path d="M59.5622 42.2478L57.8149 31.9457C57.0478 27.4227 52.2101 24.8479 48.0299 26.7377L30.628 34.6048L21.0503 38.9346C19.1313 39.8022 18.0387 41.8549 18.3909 43.9313C18.7431 46.0077 20.4513 47.5854 22.5491 47.7717L33.0189 48.7015L52.0415 50.3909C56.6111 50.7967 60.3293 46.7708 59.5622 42.2478Z" fill="#E9F5F7"/>
<path d="M60.3408 46.8407L57.0357 27.3529C56.6624 25.1521 54.3084 23.8992 52.2744 24.8187C50.8636 25.4565 50.0605 26.9655 50.3194 28.492L51.972 38.2359L53.6245 47.9798C53.8834 49.5062 55.1392 50.666 56.6814 50.803C58.9049 51.0005 60.7141 49.0415 60.3408 46.8407Z" fill="#004F64"/>
</svg>
