<svg width="537" height="180" viewBox="0 0 537 180" fill="none" xmlns="http://www.w3.org/2000/svg">
<rect width="537" height="180" fill="#F1D92C"/>
<path d="M282 69.0869C311 71.5869 314.5 57.5869 317 51.0869C319.5 44.5869 309.5 42.5869 307.5 48.5869C304 59.0869 319 65.0869 324.5 53.5869" stroke="#5B2357" stroke-width="4" stroke-linecap="round"/>
<rect x="202.852" y="104.253" width="13" height="34" rx="6.5" transform="rotate(-15 202.852 104.253)" fill="#B7E7DF"/>
<path d="M264.551 108.249L256.001 57.8342C255.234 53.3112 250.396 50.7364 246.216 52.6262L192.292 77.0042L166.117 88.8374C163.218 90.1481 161.567 93.2494 162.099 96.3864L163.189 102.814C163.721 105.951 166.302 108.335 169.471 108.616L198.084 111.157L257.031 116.392C261.6 116.798 265.319 112.772 264.551 108.249Z" fill="#E9F5F7"/>
<path d="M264.551 108.249L256.001 57.8342C255.234 53.3112 250.396 50.7364 246.216 52.6262L243.856 53.6928C240.957 55.0035 239.307 58.1047 239.839 61.2417L244.004 85.8015L248.169 110.361C248.701 113.498 251.282 115.882 254.452 116.163L257.031 116.392C261.6 116.798 265.318 112.772 264.551 108.249Z" fill="#004F64"/>
<path d="M275 80.0869C307 74.0869 358 104.587 366 83.5869" stroke="#0390B6" stroke-width="4" stroke-linecap="round"/>
<path d="M295 87.0869C320.5 85.0869 312.5 59.5869 344.5 58.5869" stroke="#E4685A" stroke-width="4" stroke-linecap="round"/>
</svg>
