<svg width="537" height="180" viewBox="0 0 537 180" fill="none" xmlns="http://www.w3.org/2000/svg">
<rect width="537" height="180" fill="#0390B6"/>
<path d="M309.8 85.0254C306.743 65.7243 295.659 62.2845 286.486 62.0934C278.842 61.9023 271.771 67.2531 268.14 70.6929C264.509 67.2531 257.439 61.9023 249.795 62.0934C240.431 62.2845 229.347 65.7243 226.289 85.0254C224.378 96.4915 236.227 141.4 268.14 132.418C300.054 141.4 311.711 96.4915 309.8 85.0254Z" fill="#E4685A"/>
<path d="M267.759 71.2665C267.759 71.2665 270.052 60.5648 266.803 47.7611L270.625 47.3789C270.625 47.3789 274.447 59.4182 270.625 68.7822" fill="#F1D92C"/>
<path d="M269.669 63.2404C269.669 63.2404 272.535 48.7167 252.279 49.8633C252.088 49.6722 251.896 64.9603 269.669 63.2404Z" fill="#75C594"/>
<ellipse cx="307.5" cy="85" rx="5.5" ry="6" fill="#0390B6"/>
<ellipse cx="300.5" cy="92" rx="6.5" ry="6" fill="#0390B6"/>
<ellipse cx="297.5" cy="100" rx="5.5" ry="6" fill="#0390B6"/>
<ellipse cx="303.5" cy="105" rx="5.5" ry="6" fill="#0390B6"/>
<ellipse cx="308" cy="96" rx="6" ry="8" fill="#0390B6"/>
</svg>
