<svg width="537" height="180" viewBox="0 0 537 180" fill="none" xmlns="http://www.w3.org/2000/svg">
<rect width="537" height="180" fill="#75C594"/>
<g clip-path="url(#clip0)">
<path d="M318.229 97.4153C318.251 97.855 318.273 98.2947 318.273 98.7345C318.273 110.19 308.983 119.479 297.528 119.479C286.436 119.479 277.377 110.772 276.816 99.8118C276.509 99.8228 276.201 99.8338 275.893 99.8338C270.231 99.8338 265.086 97.5582 261.349 93.8754C258.996 96.5028 255.588 98.1408 251.784 98.1408C248.079 98.1408 244.737 96.5688 242.396 94.0513C239.625 95.8322 236.327 96.8656 232.787 96.8656C222.959 96.8766 215 88.9173 215 79.0891C215 71.7455 219.441 65.4572 225.785 62.7308C225.73 62.2581 225.708 61.7854 225.708 61.3017C225.708 54.3208 231.358 48.6701 238.339 48.6701C240.307 48.6701 242.176 49.1209 243.847 49.9234C245.243 44.1628 250.432 39.8864 256.621 39.8864C260.293 39.8864 263.613 41.3925 265.999 43.822C268.461 41.1726 271.979 39.5126 275.893 39.5126C280.598 39.5126 284.743 41.9201 287.172 45.57C289.096 44.5586 291.284 43.9869 293.614 43.9869C300.353 43.9869 305.971 48.8021 307.213 55.1783C314.271 56.1567 319.702 62.2141 319.702 69.5358C319.702 71.8224 319.174 73.9881 318.229 75.912C321.153 78.5614 323 82.3982 323 86.6636C323 90.9291 321.153 94.7658 318.229 97.4153Z" fill="#5B2357"/>
<path d="M286.634 86.9273C289.041 86.9383 290.338 85.3113 289.767 82.9697C289.041 80.0014 286.941 78.1545 284.292 77.0662C277.41 74.2299 270.253 72.372 262.789 72.1191C254.665 71.8333 247.717 74.3948 242.781 81.2107C242.044 82.2221 241.45 83.3764 241.022 84.5418C239.768 87.9497 241.11 90.819 244.66 91.4676C247.068 91.9074 249.641 91.5116 252.136 91.4567C252.829 91.4457 253.51 91.2808 254.203 91.2478C255.709 91.1708 256.336 91.8964 256.369 93.4245C256.402 94.8866 256.292 96.3597 255.962 97.4811C258.314 99.7787 261.151 101.318 264.372 102.296C264.801 101.505 265.416 100.779 266.23 100.131C267.021 99.5039 267.67 99.3939 268.516 100.218C271.243 102.868 272.155 102.813 275.123 99.9436C276.893 101.769 276.981 104.033 277.311 106.188C277.575 107.914 277.916 109.519 280.191 110.618C280.246 109.189 280.455 107.936 280.29 106.749C280.136 105.649 279.576 104.594 279.18 103.527C278.586 101.922 278.564 100.372 279.235 98.7343C279.51 98.0637 279.4 97.0743 279.125 96.3597C278.465 94.6558 277.454 93.0837 276.882 91.3687C276.256 89.4998 277.036 88.8182 278.993 89.2689C280.521 89.6207 282.137 90.2254 282.753 87.7409" fill="white"/>
<path d="M264.767 97.7339C265.306 96.8764 266.57 96.8654 267.076 97.7449C267.087 97.7559 267.087 97.7778 267.098 97.7888C267.186 97.9318 267.285 98.0637 267.417 98.1626L270.66 101.01C270.693 101.043 270.737 101.065 270.781 101.087C271.232 101.274 273.793 102.098 275.948 97.492C276.014 97.3491 275.992 97.1842 275.904 97.0633C275.387 96.3707 273.694 93.9521 273.65 92.0722C273.639 91.8084 273.595 91.5445 273.529 91.2917C273.243 90.3243 273.221 87.4989 280.983 84.7506C280.983 84.7506 283.94 83.5193 274.76 79.3308C273.353 78.6932 271.88 78.2094 270.374 77.8796C263.811 76.4725 245.804 73.6142 249.585 85.3992C249.629 85.5201 249.717 85.6191 249.838 85.663C250.817 86.0478 255.368 87.8397 257.325 88.6093C257.863 88.8182 258.204 89.3459 258.182 89.9285C258.083 91.9953 257.885 96.1178 257.38 96.6895L259.348 98.0967C259.326 98.1077 257.567 109.31 264.767 97.7339Z" fill="#F26657"/>
<path d="M277.663 139.531L284.567 135.717C284.567 135.717 281.576 109.387 286.743 107.485C286.743 107.485 287.799 107.265 287.766 109.442C287.755 109.97 287.92 110.486 288.227 110.915C289.931 113.235 296.033 119.138 307.191 105.155C307.191 105.155 312.93 92.2703 291.295 90.2035C291.295 90.2035 276.244 90.951 282.742 103.835V106.936L280.389 105.342C280.389 105.342 280.95 92.644 271.638 95.4694C271.638 95.4694 261.194 96.6017 269.099 111.74C269.099 111.74 276.805 126.317 277.564 127.537L277.663 139.531Z" fill="#F1D92C"/>
<path d="M287.249 111.234C287.249 111.234 295.978 125.702 312.534 103.066C312.534 103.066 319.416 104.517 313.765 112.015C313.765 112.015 302.288 125.603 286.897 116.544C286.886 116.544 284.534 111.322 287.249 111.234Z" fill="#F1D92C"/>
</g>
<defs>
<clipPath id="clip0">
<rect x="215" y="39.5126" width="108" height="100.019" fill="white"/>
</clipPath>
</defs>
</svg>
