<svg width="78" height="80" viewBox="0 0 78 80" fill="none" xmlns="http://www.w3.org/2000/svg">
<rect width="78" height="80" fill="#5B2357"/>
<path d="M44.4568 49.326C42.8047 53.4564 45.2829 60.4782 38.2612 60.4782C30.8265 59.6521 32.8915 51.3912 34.9568 49.326C37.022 47.2608 38.2612 41.4782 35.3699 39.826C32.4786 38.1738 31.6525 33.6303 32.0655 31.5651C32.4786 29.4999 38.2612 27.4347 44.4568 31.5651C50.6525 35.6956 46.109 45.1956 44.4568 49.326Z" fill="#F1D92C"/>
<ellipse cx="32.4783" cy="23.3043" rx="2.47826" ry="3.30435" fill="#F1D92C"/>
<ellipse cx="38.2611" cy="23.3044" rx="1.65217" ry="2.47826" fill="#F1D92C"/>
<ellipse cx="42.3914" cy="24.5435" rx="1.65217" ry="2.06522" fill="#F1D92C"/>
<ellipse cx="46.1088" cy="26.6087" rx="1.23913" ry="1.65217" fill="#F1D92C"/>
<ellipse cx="48.1737" cy="29.5001" rx="0.826087" ry="1.23913" fill="#F1D92C"/>
</svg>
