<svg width="78" height="80" viewBox="0 0 78 80" fill="none" xmlns="http://www.w3.org/2000/svg">
<rect width="78" height="80" fill="#B7E7DF"/>
<path d="M25.6886 43.041C25.7367 40.1293 24.877 32.2845 24.877 32.2845C24.877 32.2845 26.1946 29.8609 27.8455 31.3856C29.4964 32.9103 29.1826 34.4438 30.5367 35.6338C31.8909 36.8239 36.9058 23.471 38.3547 23.0827C39.9001 22.6686 40.5712 23.6276 40.4196 26.1529C40.3646 28.6523 37.1517 35.2072 38.6006 34.819C40.1461 34.4049 44.7663 24.9882 44.7663 24.9882C44.7663 24.9882 46.9255 20.6826 48.9627 22.1038C51.8832 24.1165 42.3853 37.7389 44.1517 38.9221C46.0406 40.1759 51.0675 26.0951 54.421 29.3376C56.2202 31.0296 47.8537 42.6924 47.8537 42.6924C47.8537 42.6924 45.9117 45.4904 52.3247 43.1508C53.915 42.5177 56.8474 43.8025 55.6125 45.3757C54.043 47.2456 42.7676 50.3704 41.1394 51.6349C34.9353 56.2996 32.6675 61.3589 32.6675 61.3589L22.6139 52.0436C22.6139 52.0436 25.544 45.9785 25.6886 43.041Z" fill="#5B2357"/>
</svg>
