<svg width="78" height="80" viewBox="0 0 78 80" fill="none" xmlns="http://www.w3.org/2000/svg">
<rect width="78" height="80" fill="#E4685A"/>
<path d="M57.4293 43.3916C56.6829 42.7015 56.3563 41.5975 56.263 40.3555C56.5895 39.1595 56.5429 38.4234 56.7762 37.2274C58.4558 27.7972 52.0639 19.563 40.9132 18.137C29.7158 16.711 14.2727 26.5552 20.3846 41.2295C21.3178 43.4376 22.0643 45.2776 22.7174 46.8416L22.6241 46.8876C26.7298 55.1218 23.3706 64 23.3706 64C23.3706 64 30.5556 60.9639 41.4731 62.942C41.4731 62.942 43.0127 57.7899 45.952 57.5599C48.938 57.2839 54.2101 57.9739 54.7233 55.4438C54.9099 54.3858 55.1899 53.1898 55.4698 52.1317C55.2365 52.1317 54.9099 52.1317 54.5367 52.0857C53.6969 51.9937 52.5305 51.6717 51.4574 50.8437C51.2241 50.6597 51.1775 50.3377 51.3641 50.1537C51.5507 49.9237 51.8773 49.8777 52.0639 50.0617C53.6036 51.2577 55.3298 51.1657 55.7031 51.1197C55.983 50.0617 56.1696 49.1417 56.2163 48.7277C56.3563 47.7616 58.1292 47.2556 58.5491 46.7956C59.0623 46.3356 59.5755 45.4156 57.4293 43.3916Z" fill="#F1D92C"/>
</svg>
