<svg width="537" height="180" viewBox="0 0 537 180" fill="none" xmlns="http://www.w3.org/2000/svg">
<mask id="mask0" mask-type="alpha" maskUnits="userSpaceOnUse" x="0" y="0" width="537" height="180">
<rect width="537" height="180" fill="#B7E7DF"/>
</mask>
<g mask="url(#mask0)">
<rect width="537" height="180" fill="#B7E7DF"/>
<path d="M235.366 68.6844C235.366 68.6844 237.396 87.214 237.283 94.0914C236.941 101.03 230.02 115.356 230.02 115.356C224.014 125.904 212 148 177.5 180.5L222 180.5C222 180.5 248.734 145.5 253.767 137.359C253.767 137.359 259.124 125.408 273.778 114.39C277.624 111.404 304.257 104.023 307.964 99.606C310.881 95.89 303.954 92.8553 300.198 94.3509C285.05 99.8769 289.637 93.268 289.637 93.268C289.637 93.268 309.399 65.7202 305.149 61.7237C297.228 54.0647 285.355 87.324 280.893 84.3624C276.721 81.5678 299.155 49.3914 292.257 44.6373C287.445 41.2805 282.345 51.4503 282.345 51.4503C282.345 51.4503 271.432 73.6927 267.781 74.6708C264.359 75.5878 271.948 60.105 272.078 54.2013C272.436 48.2366 270.851 45.9714 267.2 46.9496C263.778 47.8666 251.933 79.4065 248.734 76.5955C245.536 73.7846 246.277 70.1625 242.378 66.5612C238.478 62.9598 235.366 68.6844 235.366 68.6844Z" fill="#5B2357"/>
</g>
</svg>
