<svg width="537" height="180" viewBox="0 0 537 180" fill="none" xmlns="http://www.w3.org/2000/svg">
<rect width="537" height="180" fill="#F3A08A"/>
<path d="M270.848 66.3607C269.809 68.093 267.557 67.9197 266.518 66.3607C261.841 57.8728 246.597 47.3061 231.18 58.5657C204.677 77.9667 246.943 117.808 267.557 127.336C288.517 118.501 331.65 80.7383 306.186 59.9514C300.989 55.2744 295.966 53.3689 291.289 53.3689C281.588 53.1957 274.313 60.6443 270.848 66.3607Z" fill="#B7E7DF"/>
<path d="M185.294 141.85C185.735 141.116 186.689 141.189 187.13 141.85C189.113 145.449 195.575 149.928 202.111 145.155C213.347 136.93 195.429 120.039 186.689 116C177.803 119.745 159.517 135.755 170.313 144.567C172.516 146.55 174.645 147.358 176.628 147.358C180.741 147.432 183.825 144.274 185.294 141.85Z" fill="#B7E7DF"/>
<path d="M368.918 34.7683C369.775 34.7827 370.188 35.6463 369.836 36.3583C367.711 39.8747 367.063 47.7114 374.465 50.985C387.206 56.6031 392.875 32.6395 392.003 23.0516C384.316 17.2287 361.309 9.39726 359.074 23.1527C358.459 26.0521 358.824 28.3004 359.815 30.0175C361.808 33.6158 366.085 34.7081 368.918 34.7683Z" fill="#B7E7DF"/>
<path d="M220.042 32.6391C219.715 32.9557 219.235 32.7866 219.099 32.3864C218.576 30.2651 215.873 27.0745 211.859 28.6269C204.955 31.3054 211.835 42.448 215.768 45.7256C220.848 45.0248 232.444 39.318 228.112 33.3054C227.253 31.9836 226.27 31.2755 225.252 31.0026C223.149 30.3989 221.13 31.5964 220.042 32.6391Z" fill="#B7E7DF"/>
<path d="M336.168 114.287C336.102 115.455 334.902 115.973 333.949 115.454C329.265 112.366 318.608 111.061 313.744 120.984C305.394 138.067 337.786 147.088 350.914 146.413C359.272 136.238 371.193 105.267 352.545 101.48C348.622 100.484 345.535 100.862 343.139 102.122C338.122 104.648 336.402 110.425 336.168 114.287Z" fill="#B7E7DF"/>
</svg>
