<svg width="78" height="80" viewBox="0 0 78 80" fill="none" xmlns="http://www.w3.org/2000/svg">
<rect width="78" height="80" fill="#0390B6"/>
<path d="M54.9234 37.4691C53.7539 30.0869 49.5146 28.7713 46.0063 28.6982C43.0826 28.6251 40.3782 30.6717 38.9895 31.9873C37.6008 30.6717 34.8964 28.6251 31.9728 28.6982C28.3913 28.7713 24.152 30.0869 22.9826 37.4691C22.2517 41.8546 26.7833 59.031 38.9895 55.5957C51.1957 59.031 55.6543 41.8546 54.9234 37.4691Z" fill="#E4685A"/>
<path d="M38.8435 32.2067C38.8435 32.2067 39.7206 28.1136 38.478 23.2165L39.9398 23.0703C39.9398 23.0703 41.4017 27.675 39.9398 31.2565" fill="#F1D92C"/>
<path d="M39.5741 29.1369C39.5741 29.1369 40.6704 23.582 32.9228 24.0205C32.8497 23.9474 32.7766 29.7947 39.5741 29.1369Z" fill="#75C594"/>
</svg>
