<svg width="537" height="180" viewBox="0 0 537 180" fill="none" xmlns="http://www.w3.org/2000/svg">
<mask id="mask0" mask-type="alpha" maskUnits="userSpaceOnUse" x="0" y="0" width="537" height="180">
<rect width="537" height="180" fill="#5B2357"/>
</mask>
<g mask="url(#mask0)">
<rect width="537" height="180" fill="#5B2357"/>
<path d="M311.153 178.109C307.935 186.152 312.761 199.826 299.088 199.826C284.609 198.217 288.631 182.13 292.653 178.109C296.674 174.087 299.088 162.826 293.457 159.609C287.827 156.391 286.218 147.543 287.022 143.522C287.827 139.5 299.088 135.478 311.153 143.522C323.218 151.565 314.37 170.065 311.153 178.109Z" fill="#F1D92C"/>
<ellipse cx="287.826" cy="127.435" rx="4.82609" ry="6.43478" fill="#F1D92C"/>
<ellipse cx="299.087" cy="127.435" rx="3.21739" ry="4.82609" fill="#F1D92C"/>
<ellipse cx="307.13" cy="129.848" rx="3.21739" ry="4.02174" fill="#F1D92C"/>
<ellipse cx="314.37" cy="133.869" rx="2.41304" ry="3.21739" fill="#F1D92C"/>
<ellipse cx="318.391" cy="139.5" rx="1.6087" ry="2.41304" fill="#F1D92C"/>
<path d="M301.153 66.1085C297.935 74.152 302.761 87.8259 289.088 87.8259C274.609 86.2173 278.631 70.1303 282.653 66.1085C286.674 62.0868 289.088 50.8259 283.457 47.6085C277.827 44.3912 276.218 35.5433 277.022 31.5216C277.827 27.4999 289.088 23.4781 301.153 31.5216C313.218 39.5651 304.37 58.0651 301.153 66.1085Z" fill="#F1D92C"/>
<ellipse cx="277.826" cy="15.4348" rx="4.82609" ry="6.43478" fill="#F1D92C"/>
<ellipse cx="289.087" cy="15.435" rx="3.21739" ry="4.82609" fill="#F1D92C"/>
<ellipse cx="297.13" cy="17.8479" rx="3.21739" ry="4.02174" fill="#F1D92C"/>
<ellipse cx="304.37" cy="21.8695" rx="2.41304" ry="3.21739" fill="#F1D92C"/>
<ellipse cx="308.391" cy="27.5002" rx="1.6087" ry="2.41304" fill="#F1D92C"/>
<path d="M225.847 131.109C229.064 139.152 224.238 152.826 237.912 152.826C252.39 151.217 248.369 135.13 244.347 131.109C240.325 127.087 237.912 115.826 243.542 112.609C249.173 109.391 250.782 100.543 249.977 96.5216C249.173 92.4999 237.912 88.4781 225.847 96.5216C213.782 104.565 222.629 123.065 225.847 131.109Z" fill="#F1D92C"/>
<ellipse rx="4.82609" ry="6.43478" transform="matrix(-1 0 0 1 249.173 80.4348)" fill="#F1D92C"/>
<ellipse rx="3.21739" ry="4.82609" transform="matrix(-1 0 0 1 237.912 80.435)" fill="#F1D92C"/>
<ellipse rx="3.21739" ry="4.02174" transform="matrix(-1 0 0 1 229.869 82.8479)" fill="#F1D92C"/>
<ellipse rx="2.41304" ry="3.21739" transform="matrix(-1 0 0 1 222.63 86.8695)" fill="#F1D92C"/>
<ellipse rx="1.6087" ry="2.41304" transform="matrix(-1 0 0 1 218.609 92.5002)" fill="#F1D92C"/>
<path d="M208.847 18.1085C212.064 26.152 207.238 39.8259 220.912 39.8259C235.39 38.2173 231.369 22.1303 227.347 18.1085C223.325 14.0868 220.912 2.82593 226.542 -0.391457C232.173 -3.60885 233.782 -12.4567 232.977 -16.4784C232.173 -20.5001 220.912 -24.5219 208.847 -16.4784C196.782 -8.43493 205.629 10.0651 208.847 18.1085Z" fill="#F1D92C"/>
</g>
</svg>
