<svg width="537" height="180" viewBox="0 0 537 180" fill="none" xmlns="http://www.w3.org/2000/svg">
<rect width="537" height="180" fill="#E4685A"/>
<path d="M307.702 94.9911C306.134 93.551 305.448 91.247 305.252 88.6549C305.938 86.1589 305.84 84.6228 306.33 82.1268C309.857 62.4464 296.434 45.262 273.018 42.2859C249.503 39.3099 217.073 59.8543 229.908 90.479C231.867 95.0871 233.435 98.9272 234.807 102.191L234.611 102.287C243.233 119.472 236.178 138 236.178 138C236.178 138 251.267 131.664 274.193 135.792C274.193 135.792 277.427 125.04 283.599 124.56C289.87 123.984 300.941 125.424 302.019 120.144C302.411 117.936 302.999 115.44 303.587 113.231C303.097 113.231 302.411 113.231 301.627 113.135C299.863 112.943 297.414 112.271 295.161 110.543C294.671 110.159 294.573 109.487 294.965 109.103C295.357 108.623 296.042 108.527 296.434 108.911C299.668 111.407 303.293 111.215 304.076 111.119C304.664 108.911 305.056 106.991 305.154 106.127C305.448 104.111 309.171 103.055 310.053 102.095C311.131 101.135 312.209 99.2152 307.702 94.9911Z" fill="#F1D92C"/>
</svg>
