<svg width="78" height="80" viewBox="0 0 78 80" fill="none" xmlns="http://www.w3.org/2000/svg">
<rect width="78" height="80" fill="#75C594"/>
<g clip-path="url(#clip0)">
<path d="M56.2329 44.4454C56.241 44.6083 56.2492 44.7712 56.2492 44.934C56.2492 49.1767 52.8086 52.6173 48.566 52.6173C44.4577 52.6173 41.1026 49.3925 40.8949 45.3331C40.7809 45.3371 40.6669 45.3412 40.5529 45.3412C38.456 45.3412 36.5505 44.4984 35.1661 43.1344C34.2948 44.1075 33.0326 44.7142 31.6238 44.7142C30.2516 44.7142 29.0138 44.1319 28.1466 43.1995C27.1205 43.8591 25.899 44.2419 24.5879 44.2419C20.9479 44.2459 18 41.298 18 37.658C18 34.9381 19.645 32.6091 21.9943 31.5993C21.9739 31.4243 21.9658 31.2492 21.9658 31.07C21.9658 28.4845 24.0586 26.3917 26.6441 26.3917C27.373 26.3917 28.0651 26.5586 28.684 26.8559C29.2011 24.7223 31.123 23.1384 33.4153 23.1384C34.7752 23.1384 36.0049 23.6963 36.8884 24.5961C37.8005 23.6148 39.1034 23 40.5529 23C42.2956 23 43.8306 23.8917 44.7305 25.2435C45.443 24.8689 46.2533 24.6572 47.1164 24.6572C49.6124 24.6572 51.693 26.4406 52.1531 28.8021C54.7671 29.1645 56.7785 31.408 56.7785 34.1197C56.7785 34.9666 56.5831 35.7687 56.2329 36.4813C57.316 37.4625 58 38.8836 58 40.4634C58 42.0432 57.316 43.4642 56.2329 44.4454Z" fill="#5B2357"/>
<path d="M44.5308 40.561C45.4225 40.5651 45.903 39.9625 45.6913 39.0952C45.4225 37.9959 44.6448 37.3118 43.6636 36.9088C41.1147 35.8583 38.4641 35.1702 35.6994 35.0765C32.6904 34.9706 30.1172 35.9193 28.289 38.4438C28.0162 38.8184 27.7963 39.2459 27.6375 39.6775C27.1733 40.9397 27.6701 42.0024 28.9852 42.2426C29.8769 42.4055 30.8297 42.2589 31.754 42.2386C32.0105 42.2345 32.2629 42.1734 32.5194 42.1612C33.0773 42.1327 33.3093 42.4014 33.3215 42.9674C33.3338 43.5089 33.293 44.0545 33.1709 44.4698C34.0422 45.3208 35.0927 45.8908 36.2857 46.2532C36.4445 45.96 36.6725 45.6913 36.9738 45.4511C37.267 45.219 37.5072 45.1783 37.8207 45.4837C38.8305 46.4649 39.1685 46.4446 40.2678 45.3819C40.9233 46.0578 40.9559 46.8965 41.0781 47.6946C41.1758 48.3338 41.302 48.9283 42.1448 49.3355C42.1652 48.8061 42.2426 48.342 42.1815 47.9022C42.1245 47.4951 41.9168 47.1042 41.7702 46.7092C41.5504 46.1148 41.5422 45.5407 41.7906 44.934C41.8924 44.6856 41.8517 44.3192 41.7499 44.0545C41.5056 43.4234 41.131 42.8412 40.9193 42.206C40.6872 41.5138 40.9763 41.2614 41.701 41.4283C42.267 41.5586 42.8655 41.7825 43.0935 40.8623" fill="white"/>
<path d="M36.4324 44.5634C36.6319 44.2459 37.1002 44.2418 37.2875 44.5675C37.2915 44.5716 37.2915 44.5797 37.2956 44.5838C37.3282 44.6367 37.3648 44.6856 37.4137 44.7222L38.6148 45.7768C38.627 45.789 38.6433 45.7972 38.6596 45.8053C38.8266 45.8745 39.7753 46.1799 40.5733 44.4739C40.5977 44.4209 40.5896 44.3599 40.557 44.3151C40.3656 44.0586 39.7386 43.1628 39.7223 42.4665C39.7183 42.3688 39.702 42.2711 39.6775 42.1774C39.5717 41.8191 39.5635 40.7727 42.4381 39.7548C42.4381 39.7548 43.5334 39.2988 40.1336 37.7475C39.6124 37.5113 39.0668 37.3322 38.509 37.21C36.0782 36.6888 29.4088 35.6302 30.8095 39.995C30.8257 40.0398 30.8583 40.0765 30.9031 40.0928C31.2655 40.2353 32.9512 40.8989 33.6759 41.184C33.8754 41.2613 34.0016 41.4568 33.9935 41.6726C33.9569 42.438 33.8836 43.9649 33.6963 44.1766L34.4251 44.6978C34.4169 44.7019 33.7655 48.8509 36.4324 44.5634Z" fill="#F26657"/>
<path d="M41.2085 60.044L43.7655 58.6311C43.7655 58.6311 42.658 48.8795 44.5717 48.1751C44.5717 48.1751 44.9625 48.0936 44.9503 48.8998C44.9462 49.0953 45.0073 49.2866 45.1213 49.4454C45.7524 50.3045 48.0122 52.491 52.1449 47.3119C52.1449 47.3119 54.2704 42.5399 46.2573 41.7744C46.2573 41.7744 40.6832 42.0513 43.0896 46.8233V47.9715L42.2182 47.3811C42.2182 47.3811 42.4259 42.6783 38.9772 43.7247C38.9772 43.7247 35.1091 44.1441 38.0366 49.7508C38.0366 49.7508 40.8909 55.1498 41.1718 55.6018L41.2085 60.044Z" fill="#F1D92C"/>
<path d="M44.7589 49.5636C44.7589 49.5636 47.9918 54.9219 54.1237 46.5383C54.1237 46.5383 56.6726 47.0758 54.5797 49.8527C54.5797 49.8527 50.3289 54.8852 44.6286 51.5302C44.6245 51.5302 43.7532 49.5961 44.7589 49.5636Z" fill="#F1D92C"/>
</g>
<defs>
<clipPath id="clip0">
<rect x="18" y="23" width="40" height="37.044" fill="white"/>
</clipPath>
</defs>
</svg>
